:SAMPLES-PER-SECOND 30
:FULLY-SPECIFIED
:DEGREES
139
root  -58.7566 37.8561 -2.06946 5.17529 -75.6781 -17.8329
RightUpLeg  -19.1022 -21.7284 5.24799
RightLeg  36.8437 -4.76189 -4.09099
RightFoot  -5.88094 0.434254 -9.95153
RightToes  1.16414e-010 0 -3.6325e-017
Spine  14.7281 -2.4746 5.64763
Spine1  12.143 -2.80219 6.63856
HEad  -22.6501 41.9896 -12.9966
LeftShoulder1  7.86943 -12.7586 -42.0113
LeftArm  -49.2652 -1.5911 -14.0473
LeftForeArm  -5.44063 -51.9798 -14.85
LeftHand  -0.244104 0.0205437 5.32207
RightShoulder  3.8571 7.68131 28.49
RightArm  -15.9887 -14.7382 42.0747
RightForeArm  1.98631 33.2704 7.27956
RightHand  -2.38415 6.4951 -23.2806
LeftUpLeg  -11.9618 7.27965 9.11179
LeftLeg  76.227 2.24283 11.5851
LeftFoot  10.8104 -0.0115721 -0.168619
LeftToes  -6.45774e-011 3.08606e-011 -5.1752e-012
140
root  -60.0437 38.0259 -2.20988 5.24905 -75.8552 -18.3354
RightUpLeg  -16.398 -22.2666 5.20799
RightLeg  37.2577 -4.57747 -4.01871
RightFoot  -8.32087 0.205361 -9.93928
RightToes  1.16414e-010 0 -3.6325e-017
Spine  14.799 -2.16532 6.44437
Spine1  12.6127 -1.91606 5.27113
HEad  -25.1434 39.2334 -13.4428
LeftShoulder1  8.40671 -13.1451 -43.9572
LeftArm  -48.251 -0.0983967 -15.019
LeftForeArm  -7.28792 -50.9416 -14.4264
LeftHand  -0.244104 0.0205437 5.32207
RightShoulder  3.85034 7.5457 28.8605
RightArm  -14.8477 -13.2834 42.5722
RightForeArm  3.18664 31.4653 6.73602
RightHand  -2.20801 6.06361 -22.4108
LeftUpLeg  -17.3962 6.31808 8.52363
LeftLeg  80.6641 1.23386 11.3485
LeftFoot  7.78443 -0.535955 2.86665
LeftToes  -6.45774e-011 3.08606e-011 -5.1752e-012
141
root  -61.3104 38.4815 -2.32551 2.6611 -76.6758 -15.7015
RightUpLeg  -13.1851 -22.5004 4.26797
RightLeg  35.653 -3.89951 -3.28543
RightFoot  -9.17189 0.141599 -10.6652
RightToes  1.16414e-010 0 -3.6325e-017
Spine  14.4454 -1.61084 6.35587
Spine1  12.7297 -0.83636 3.51696
HEad  -26.3716 36.7283 -13.0256
LeftShoulder1  8.75678 -13.3686 -45.2385
LeftArm  -46.7991 2.25662 -16.8261
LeftForeArm  -8.49625 -49.2928 -13.6669
LeftHand  -0.244104 0.0205437 5.32207
RightShoulder  3.91456 7.56134 29.4021
RightArm  -14.0224 -12.421 43.2025
RightForeArm  2.6476 30.0524 6.40847
RightHand  -2.1611 5.9778 -22.109
LeftUpLeg  -21.2139 5.19275 6.8993
LeftLeg  79.5772 1.02059 8.7085
LeftFoot  5.62903 -0.367787 2.23054
LeftToes  -6.45774e-011 3.08606e-011 -5.1752e-012
142
root  -62.512 39.0951 -2.4092 -1.44318 -77.83 -11.3288
RightUpLeg  -9.48543 -23.0202 2.7261
RightLeg  32.4771 -2.68521 -2.19581
RightFoot  -9.31409 0.124411 -10.5389
RightToes  1.16414e-010 0 -3.6325e-017
Spine  14.1622 -1.13906 6.02118
Spine1  12.4434 0.239833 1.12939
HEad  -27.3601 34.8284 -12.5435
LeftShoulder1  8.85571 -13.4705 -45.4828
LeftArm  -45.0202 6.08373 -19.3374
LeftForeArm  -9.24748 -48.203 -13.194
LeftHand  -0.244104 0.0205437 5.32207
RightShoulder  4.01456 7.75981 29.6737
RightArm  -13.2379 -12.1494 44.3929
RightForeArm  1.39648 29.364 6.30666
RightHand  -2.20197 6.09835 -22.2846
LeftUpLeg  -23.1231 3.77027 4.88681
LeftLeg  73.5195 1.55851 6.9607
LeftFoot  5.15949 0.0426284 -0.514756
LeftToes  -6.45774e-011 3.08606e-011 -5.1752e-012
143
root  -63.6537 39.7983 -2.49026 -6.5455 -79.3359 -5.5141
RightUpLeg  -5.5651 -23.1186 0.965591
RightLeg  27.682 -1.54158 -0.679621
RightFoot  -8.50542 0.188252 -9.90657
RightToes  1.16414e-010 0 -3.6325e-017
Spine  13.6653 -0.601229 5.23535
Spine1  12.0001 1.23205 -1.44291
HEad  -28.606 33.2387 -12.2536
LeftShoulder1  8.68954 -13.257 -45.1857
LeftArm  -43.7103 10.6118 -22.1883
LeftForeArm  -10.5543 -48.082 -13.2245
LeftHand  -0.244104 0.0205437 5.32207
RightShoulder  4.01888 7.82983 29.4875
RightArm  -11.9524 -12.1025 45.9736
RightForeArm  0.642278 29.5802 6.40118
RightHand  -2.2461 6.2713 -22.3923
LeftUpLeg  -23.1578 2.50061 2.7439
LeftLeg  63.0568 2.81927 6.61503
LeftFoot  3.94303 0.220204 -1.80476
LeftToes  -6.45774e-011 3.08606e-011 -5.1752e-012
144
root  -64.76 40.4602 -2.58811 -12.3198 -81.1934 1.63029
RightUpLeg  -2.39287 -18.7162 -0.438738
RightLeg  22.4417 -4.16078 1.00213
RightFoot  -6.757 0.330293 -9.36428
RightToes  1.16414e-010 0 -3.6325e-017
Spine  12.481 0.230321 4.12683
Spine1  11.2627 2.30695 -3.71456
HEad  -29.3334 31.2438 -11.5814
LeftShoulder1  8.56281 -13.0043 -45.2014
LeftArm  -43.6567 15.168 -24.705
LeftForeArm  -11.8355 -48.4735 -13.491
LeftHand  -0.244104 0.0205437 5.32207
RightShoulder  4.00169 7.84779 29.29
RightArm  -10.4656 -12.612 47.0136
RightForeArm  0.713378 30.7299 6.68591
RightHand  -2.27299 6.42973 -22.3596
LeftUpLeg  -21.8815 1.94255 0.856104
LeftLeg  48.9732 4.19479 5.60634
LeftFoot  2.06134 0.12723 -1.18531
LeftToes  -6.45774e-011 3.08606e-011 -5.1752e-012
145
root  -65.8358 40.961 -2.69248 -19.6659 -83.3795 10.6047
RightUpLeg  -0.388315 -12.7386 -0.81823
RightLeg  18.0431 -8.12217 2.14872
RightFoot  -5.25735 0.443609 -8.9808
RightToes  1.16414e-010 0 -3.6325e-017
Spine  11.2981 1.1538 3.81385
Spine1  8.80581 3.72413 -7.21741
HEad  -28.1735 28.7663 -9.13284
LeftShoulder1  8.70772 -13.5567 -44.4886
LeftArm  -44.9169 21.031 -26.9726
LeftForeArm  -12.0904 -49.223 -13.8736
LeftHand  -0.244104 0.0205437 5.32207
RightShoulder  4.38679 8.42454 30.7445
RightArm  -9.56623 -14.5387 46.2381
RightForeArm  1.40068 32.4319 7.08864
RightHand  -2.25634 6.37774 -22.296
LeftUpLeg  -19.6862 3.12116 -0.67329
LeftLeg  33.0312 4.6443 3.65967
LeftFoot  1.50449 0.0480274 -0.512548
LeftToes  -6.45774e-011 3.08606e-011 -5.1752e-012
146
root  -66.8565 41.2081 -2.77361 -30.9801 -85.701 22.9973
RightUpLeg  1.1301 -10.8344 -0.734698
RightLeg  15.6369 -8.55054 2.6972
RightFoot  -5.13424 0.445474 -8.82838
RightToes  1.16414e-010 0 -3.6325e-017
Spine  11.0337 1.49772 4.93089
Spine1  5.09715 5.1419 -13.1536
HEad  -26.2004 26.6839 -4.94385
LeftShoulder1  8.4641 -14.5682 -40.5377
LeftArm  -47.348 28.1604 -30.8515
LeftForeArm  -11.314 -50.2966 -14.3593
LeftHand  -0.244104 0.0205437 5.32207
RightShoulder  5.23243 9.38976 34.6634
RightArm  -9.03485 -16.4711 43.9051
RightForeArm  2.02372 33.8836 7.44186
RightHand  -2.23905 6.24597 -22.3719
LeftUpLeg  -16.6879 6.92025 -1.96827
LeftLeg  18.556 4.34415 1.72589
LeftFoot  2.16559 0.114687 -1.07089
LeftToes  -6.45774e-011 3.08606e-011 -5.1752e-012
147
root  -67.8062 41.1726 -2.81947 -41.4601 -87.6871 33.4448
RightUpLeg  2.77061 -11.7884 -0.495065
RightLeg  15.5734 -6.66142 2.9902
RightFoot  -6.4058 0.331867 -8.68417
RightToes  1.16414e-010 0 -3.6325e-017
Spine  10.382 1.66508 4.40701
Spine1  5.57987 5.39723 -13.5943
HEad  -27.1239 25.2685 -4.7648
LeftShoulder1  8.45809 -14.5548 -40.5545
LeftArm  -49.3004 30.9698 -32.275
LeftForeArm  -12.2455 -49.981 -14.2627
LeftHand  -0.244104 0.0205437 5.32207
RightShoulder  5.01762 9.00992 34.1416
RightArm  -8.56347 -15.0399 44.1433
RightForeArm  2.09172 34.5127 7.61312
RightHand  -2.37366 6.59509 -22.9966
LeftUpLeg  -13.135 9.69393 -2.02063
LeftLeg  9.09875 6.30578 -0.603025
LeftFoot  2.90674 0.226837 -1.95001
LeftToes  -6.45774e-011 3.08606e-011 -5.1752e-012
148
root  -68.6856 40.9176 -2.85885 -24.5826 -88.7355 15.6154
RightUpLeg  4.61455 -15.8526 -0.281676
RightLeg  17.5729 -2.1703 2.99453
RightFoot  -8.78547 0.128554 -8.39549
RightToes  1.16414e-010 0 -3.6325e-017
Spine  10.7974 1.39532 3.64203
Spine1  6.29901 4.92017 -12.2671
HEad  -27.5446 23.5048 -4.56737
LeftShoulder1  8.29702 -14.432 -40.0094
LeftArm  -50.0361 31.8822 -33.7882
LeftForeArm  -14.3148 -48.0566 -13.456
LeftHand  -0.244104 0.0205437 5.32207
RightShoulder  4.64264 8.54344 32.5942
RightArm  -8.83491 -14.0514 44.8346
RightForeArm  0.813312 35.5778 7.98972
RightHand  -2.64785 7.35785 -24.084
LeftUpLeg  -9.8663 7.51357 -0.67633
LeftLeg  5.85214 11.205 -2.80247
LeftFoot  3.95358 0.0210142 -0.375437
LeftToes  -6.45774e-011 3.08606e-011 -5.1752e-012
149
root  -69.4917 40.5729 -2.92622 17.6491 -88.1375 -27.6228
RightUpLeg  5.79353 -22.0998 -0.457091
RightLeg  21.3979 3.7197 2.55621
RightFoot  -11.75 -0.0998177 -7.39175
RightToes  1.16414e-010 0 -3.6325e-017
Spine  11.4902 1.02877 1.70885
Spine1  7.15479 3.86118 -9.48846
HEad  -27.0675 21.6479 -3.54331
LeftShoulder1  8.152 -14.292 -39.5828
LeftArm  -49.0988 31.037 -33.9761
LeftForeArm  -16.2724 -45.3345 -12.3572
LeftHand  -0.244104 0.0205437 5.32207
RightShoulder  4.39585 8.30944 31.2693
RightArm  -9.25881 -13.6657 44.781
RightForeArm  -0.545435 36.7056 8.39743
RightHand  -2.84635 7.87739 -24.8505
LeftUpLeg  -8.41051 8.00356 -0.907332
LeftLeg  7.3312 9.89911 -2.23491
LeftFoot  5.57944 -0.706196 4.49361
LeftToes  -6.45774e-011 3.08606e-011 -5.1752e-012
